<svg xmlns="http://www.w3.org/2000/svg" xmlns:xlink="http://www.w3.org/1999/xlink" width="6400" height="1600" viewBox="0 0 6400 1600" fill="none">
<path d="M1062.84 211C784.068 211 657.428 211 657.428 211C386.02 211 166 474.927 166 800.498C166 1126.07 386.02 1390 657.428 1390C658.225 1390 784.068 1390 1062.84 1390L1062.84 1256.24C783.272 1256.24 657.428 1256.24 658.225 1256.24C448.84 1256.24 279.1 1052.62 279.1 801.453C279.1 550.283 448.84 346.671 658.225 346.671C657.428 346.671 783.272 346.671 1062.84 346.671L1062.84 211Z" fill-rule="evenodd"  fill="#FFFFFF" >
</path>
<path d="M1024.61 493.808C1024.34 493.808 1024.08 493.807 1023.81 493.807C803.869 493.807 615.216 701.364 615.216 1026.94L615.216 1361.33L753.367 1361.33L753.367 1026.94C753.367 775.765 854.13 661.962 1023.81 661.962C1024.08 661.962 1024.34 661.963 1024.61 661.963C1024.87 661.963 1025.14 661.962 1025.4 661.962C1195.08 661.962 1295.85 775.765 1295.85 1026.94L1295.85 1361.33L1434 1361.33L1434 1026.94C1434 701.364 1245.34 493.807 1025.4 493.807C1025.14 493.807 1024.87 493.808 1024.61 493.808Z" fill-rule="evenodd"  fill="#FFFFFF" >
</path>
<path d="M2063.13 1179.04C2150.16 1179.04 2224.63 1146.97 2281.15 1083.71L2196.82 986.65C2165.42 1019.58 2123.24 1045.59 2069.41 1045.59C1975.2 1045.59 1914.19 971.053 1914.19 842.79C1914.19 717.127 1985.07 642.59 2071.2 642.59C2118.75 642.59 2153.75 663.394 2187.84 692.86L2271.28 594.07C2225.52 549.005 2155.55 510 2068.52 510C1898.95 510 1750 633.063 1750 847.99C1750 1066.38 1893.56 1179.04 2063.13 1179.04ZM2344.84 1166.91L2451.32 1166.91L2451.32 947.36C2471.66 928.294 2486 917.9 2509.93 917.9C2536.85 917.9 2549.41 930.617 2549.41 976.26L2549.41 1166.91L2655.88 1166.91L2655.88 963.55C2655.88 881.508 2624.18 830.08 2550.01 830.08C2503.95 830.08 2470.45 852.615 2445.93 874.57L2451.32 816.22L2451.32 705.28L2344.84 705.28L2344.84 1166.91ZM2738.42 1166.91L2844.9 1166.91L2844.9 838.17L2738.42 838.17L2738.42 1166.91ZM2791.66 792.52C2826.95 792.52 2850.88 771.725 2850.88 739.37C2850.88 707.593 2826.95 686.8 2791.66 686.8C2755.77 686.8 2732.45 707.593 2732.45 739.37C2732.45 771.725 2755.77 792.52 2791.66 792.52ZM2930.42 1166.91L3036.9 1166.91L3036.9 947.36C3057.24 928.294 3071.58 917.9 3095.51 917.9C3122.43 917.9 3134.99 930.617 3134.99 976.26L3134.99 1166.91L3241.46 1166.91L3241.46 963.55C3241.46 881.508 3209.76 830.08 3135.59 830.08C3089.53 830.08 3054.84 852.613 3026.73 879.19L3024.94 879.19L3017.16 838.17L2930.42 838.17L2930.42 1166.91ZM3446.03 1305C3564.46 1305 3639.22 1255.89 3639.22 1186.56C3639.22 1127.05 3591.37 1102.2 3507.63 1102.2L3453.81 1102.2C3417.32 1102.2 3403.55 1095.27 3403.55 1080.25C3403.55 1068.69 3407.15 1064.07 3414.33 1057.14C3429.28 1061.18 3443.04 1062.92 3454.4 1062.92C3529.77 1062.92 3590.18 1029.41 3590.18 952.57C3590.18 936.97 3585.99 921.944 3581.2 912.7L3633.24 912.7L3633.24 838.17L3508.24 838.17C3492.69 832.97 3474.14 830.08 3454.4 830.08C3380.83 830.08 3312.05 869.359 3312.05 949.09C3312.05 987.8 3334.18 1018.43 3358.7 1034.61L3358.7 1036.92C3335.97 1051.94 3320.42 1075.05 3320.42 1098.16C3320.42 1125.89 3333.58 1143.23 3351.52 1154.79L3351.52 1157.67C3319.82 1173.27 3303.68 1195.23 3303.68 1222.38C3303.68 1281.31 3367.67 1305 3446.03 1305ZM3454.4 1001.1C3429.88 1001.1 3411.33 983.756 3411.33 949.09C3411.33 916.158 3429.88 898.84 3454.4 898.84C3479.52 898.84 3498.07 916.158 3498.07 949.09C3498.07 983.756 3479.52 1001.1 3454.4 1001.1ZM3462.77 1240.87C3419.7 1240.87 3391 1229.32 3391 1206.21C3391 1195.23 3395.78 1185.98 3406.55 1176.74C3417.32 1179.63 3430.48 1180.79 3455 1180.79L3487.3 1180.79C3519 1180.79 3536.94 1184.83 3536.94 1204.47C3536.94 1225.27 3506.43 1240.87 3462.77 1240.87ZM3846.78 1175.01C3886.26 1175.01 3932.91 1161.72 3968.2 1137.45L3932.91 1075.63C3908.39 1089.5 3885.65 1096.42 3861.13 1096.42C3818.06 1096.42 3785.77 1077.95 3776.2 1032.88L3975.98 1032.88C3978.37 1024.79 3980.76 1006.88 3980.76 988.39C3980.76 898.837 3932.92 830.08 3834.82 830.08C3752.88 830.08 3673.32 895.952 3673.32 1002.26C3673.32 1111.46 3748.69 1175.01 3846.78 1175.01ZM3774.41 965.28C3781.59 926.57 3807.3 908.65 3836.61 908.65C3875.49 908.65 3890.44 932.925 3890.44 965.28L3774.41 965.28ZM4220.82 1166.91L4384.11 1166.91L4422.69 1018.72L4620.08 1018.72L4658.65 1166.91L4827.34 1166.91L4620.08 521.26L4428.07 521.26L4220.82 1166.91ZM4453.19 899.12L4467.55 844.52C4484.6 780.388 4502.54 704.988 4518.69 637.39L4522.28 637.39C4540.22 703.255 4557.28 780.388 4575.22 844.52L4589.57 899.12L4453.19 899.12ZM4985.24 1175.01C5017.54 1175.01 5050.43 1158.25 5074.36 1135.14L5076.75 1135.14L5084.53 1166.91L5171.27 1166.91L5171.27 705.28L5064.8 705.28L5064.8 815.06L5068.38 864.17C5046.25 843.371 5024.11 830.08 4986.43 830.08C4915.85 830.08 4845.87 894.796 4845.87 1002.26C4845.87 1109.72 4900.3 1175.01 4985.24 1175.01ZM5013.36 1090.66C4976.87 1090.66 4955.34 1064.08 4955.34 1001.1C4955.34 940.435 4982.25 913.86 5011.56 913.86C5029.5 913.86 5048.65 919.056 5064.8 933.5L5064.8 1062.92C5049.85 1084.3 5033.7 1090.66 5013.36 1090.66ZM5256.8 1166.91L5363.27 1166.91L5363.27 947.36C5383.01 927.138 5401.55 917.9 5417.1 917.9C5444.02 917.9 5456.58 930.617 5456.58 976.26L5456.58 1166.91L5563.05 1166.91L5563.05 947.36C5583.39 927.138 5601.92 917.9 5617.47 917.9C5644.39 917.9 5656.35 930.617 5656.35 976.26L5656.35 1166.91L5762.83 1166.91L5762.83 963.55C5762.83 881.508 5730.52 830.08 5656.35 830.08C5610.89 830.08 5579.19 855.502 5549.88 884.39C5532.53 849.147 5503.83 830.08 5456.58 830.08C5410.52 830.08 5381.21 852.615 5353.1 879.77L5351.3 879.77L5343.53 838.17L5256.8 838.17L5256.8 1166.91ZM5845.96 1166.91L5952.44 1166.91L5952.44 838.17L5845.96 838.17L5845.96 1166.91ZM5899.2 792.52C5934.49 792.52 5958.42 771.725 5958.42 739.37C5958.42 707.593 5934.49 686.8 5899.2 686.8C5863.31 686.8 5839.98 707.593 5839.98 739.37C5839.98 771.725 5863.31 792.52 5899.2 792.52ZM6037.96 1166.91L6144.44 1166.91L6144.44 947.36C6164.78 928.294 6179.12 917.9 6203.05 917.9C6229.97 917.9 6242.53 930.617 6242.53 976.26L6242.53 1166.91L6349 1166.91L6349 963.55C6349 881.508 6317.3 830.08 6243.13 830.08C6197.07 830.08 6162.37 852.613 6134.26 879.19L6132.48 879.19L6124.7 838.17L6037.96 838.17L6037.96 1166.91Z" fill-rule="evenodd"  fill="#FFFFFF" >
</path>
</svg>
